<svg width="34" height="79" viewBox="0 0 34 79" fill="none" xmlns="http://www.w3.org/2000/svg">
<path d="M1.94697 39.3753C1.69092 39.2821 1.54599 39.1408 1.48851 38.8891C1.25338 37.8557 1.74081 36.7416 2.44831 35.6746C2.75285 35.2153 3.07951 34.7914 3.37654 34.4058C3.41753 34.3526 3.45797 34.3001 3.4977 34.2484C3.6589 34.0385 3.81137 33.8371 3.93647 33.6545C4.05802 33.4771 4.17337 33.2898 4.24301 33.1103L4.24311 33.1101C4.45592 32.5608 4.49909 32.0616 4.45641 31.5643C4.42864 31.2271 4.40166 30.9166 4.37656 30.6277C4.27187 29.423 4.19976 28.5932 4.239 27.762C4.28659 26.7538 4.50074 25.7354 5.06634 24.0633C5.7505 22.0406 7.82622 20.1441 10.4427 18.741C13.0443 17.3459 16.0685 16.5 18.5022 16.5C23.4105 16.5 30.3398 19.7074 32.5217 26.1398C33.0181 28.1761 33.2632 31.3543 32.8922 34.4514C32.5177 37.5782 31.5304 40.4972 29.6731 42.1212C28.334 43.2922 27.6106 44.9489 27.293 46.7994C26.9757 48.6487 27.0566 50.7278 27.3568 52.8016C27.9048 56.587 29.196 60.4351 30.249 62.9976H8.75493C8.80958 62.8619 8.87034 62.7078 8.93607 62.5363C9.22184 61.7905 9.60176 60.7144 9.98139 59.3862C10.74 56.7322 11.501 53.0599 11.501 49C11.501 48.6561 11.4002 48.3219 11.1196 48.0941C10.8594 47.8828 10.5362 47.8407 10.269 47.8455C9.77903 47.8542 9.15507 48.0352 8.58951 48.1993C8.5513 48.2104 8.51336 48.2214 8.47574 48.2322C7.83494 48.4174 7.23938 48.5808 6.75142 48.5982C6.27509 48.6151 6.05929 48.4933 5.94572 48.2705C5.60981 47.6117 5.38835 46.4469 5.25696 45.1965C5.12796 43.969 5.0927 42.7378 5.0927 42C5.0927 41.6902 5.19956 41.4013 5.32923 41.0506C5.38892 40.8892 5.45896 40.6984 5.49832 40.51C5.53853 40.3175 5.55706 40.0834 5.47657 39.8419C5.41577 39.6595 5.28622 39.5474 5.17113 39.4855C5.06427 39.428 4.95419 39.4039 4.87064 39.3918C4.7039 39.3677 4.50924 39.3742 4.33092 39.3861C4.16275 39.3973 4.00145 39.4129 3.83735 39.4288C3.59832 39.452 3.35333 39.4757 3.0724 39.4872C2.62373 39.5054 2.23307 39.4795 1.94697 39.3753Z" fill="#6A6A6A" stroke="#A6A6A6"/>
<path d="M16.9287 0.5V79" stroke="#CCCCCC" stroke-dasharray="2 2"/>
</svg>
