<svg width="24" height="24" viewBox="0 0 24 24" fill="none" xmlns="http://www.w3.org/2000/svg">
<path d="M4.64875 9.34875L2.69875 11.2987C2.30875 11.6888 2.30875 12.3187 2.69875 12.7087L4.64875 14.6587C5.13875 15.1487 5.92875 15.1487 6.41875 14.6587C6.89875 14.1687 6.89875 13.3887 6.41875 12.8987L5.53875 11.9987L6.41875 11.1087C6.89875 10.6187 6.89875 9.83875 6.41875 9.34875C5.93875 8.85875 5.13875 8.85875 4.64875 9.34875ZM17.5787 9.34875C17.0988 9.83875 17.0988 10.6187 17.5787 11.1087L18.4587 11.9987L17.5787 12.8888C17.0988 13.3787 17.0988 14.1587 17.5787 14.6487C18.0687 15.1387 18.8588 15.1387 19.3488 14.6487L21.2987 12.6987C21.6887 12.3087 21.6887 11.6788 21.2987 11.2887L19.3488 9.33875C18.8588 8.85875 18.0587 8.85875 17.5787 9.34875ZM11.9987 18.4587L11.1087 17.5787C10.6187 17.0988 9.83875 17.0988 9.34875 17.5787C8.85875 18.0687 8.85875 18.8588 9.34875 19.3488L11.2987 21.2987C11.6888 21.6887 12.3187 21.6887 12.7087 21.2987L14.6587 19.3488C15.1487 18.8588 15.1487 18.0687 14.6587 17.5787C14.1687 17.0988 13.3887 17.0988 12.8987 17.5787L11.9987 18.4587ZM9.34875 6.41875C9.83875 6.89875 10.6187 6.89875 11.1087 6.41875L11.9987 5.53875L12.8888 6.41875C13.3787 6.89875 14.1587 6.89875 14.6487 6.41875C15.1387 5.92875 15.1387 5.13875 14.6487 4.64875L12.6987 2.69875C12.3087 2.30875 11.6788 2.30875 11.2887 2.69875L9.34875 4.64875C8.85875 5.13875 8.85875 5.93875 9.34875 6.41875Z" fill="#FBFBFB"/>
<path d="M12 15C13.6569 15 15 13.6569 15 12C15 10.3431 13.6569 9 12 9C10.3431 9 9 10.3431 9 12C9 13.6569 10.3431 15 12 15Z" fill="#FBFBFB"/>
</svg>
