<svg width="24" height="24" viewBox="0 0 24 24" fill="none" xmlns="http://www.w3.org/2000/svg">
<path d="M11.9991 4.99857V2.20857C11.9991 1.75857 11.4591 1.53857 11.1491 1.85857L7.34905 5.64857C7.14905 5.84857 7.14905 6.15857 7.34905 6.35857L11.1391 10.1486C11.4591 10.4586 11.9991 10.2386 11.9991 9.78857V6.99857C15.7291 6.99857 18.6791 10.4186 17.8591 14.2886C17.3891 16.5586 15.5491 18.3886 13.2891 18.8586C9.71905 19.6086 6.53905 17.1586 6.05905 13.8486C5.98905 13.3686 5.56905 12.9986 5.07905 12.9986C4.47905 12.9986 3.99905 13.5286 4.07905 14.1286C4.69905 18.5186 8.87905 21.7686 13.6091 20.8486C16.7291 20.2386 19.2391 17.7286 19.8491 14.6086C20.8391 9.47857 16.9391 4.99857 11.9991 4.99857Z" fill="#FBFBFB"/>
</svg>
