<svg width="38" height="49" viewBox="0 0 38 49" fill="none" xmlns="http://www.w3.org/2000/svg">
<path d="M19.2473 48.5C13.1957 48.5 7.42423 47.983 2.1413 46.9095C4.01511 45.7972 5.93076 44.4069 7.80568 42.5916L7.8059 42.5914C8.77464 41.6523 9.49533 40.4993 9.60926 39.0784L9.60931 39.0777C9.71939 37.681 9.91849 35.0254 8.87378 32.9764L8.87336 32.9756C8.71227 32.6611 8.59339 32.3108 8.47761 31.9248C8.44759 31.8247 8.41735 31.7205 8.38642 31.614C8.3024 31.3246 8.21327 31.0176 8.10952 30.7263C7.8248 29.927 7.38832 29.1162 6.44005 28.5817C6.4365 28.5721 6.43267 28.5608 6.42855 28.5479C6.41371 28.5014 6.39963 28.4472 6.3829 28.3798C6.38079 28.3713 6.37859 28.3624 6.37633 28.3533C6.36242 28.2969 6.34588 28.2299 6.32806 28.1685C6.2013 27.728 6.07242 27.2908 5.94408 26.8555C5.54918 25.5159 5.15944 24.1938 4.8527 22.8488L4.85262 22.8484C4.80152 22.6251 4.81198 22.3613 4.85828 22.0343C4.87737 21.8995 4.90081 21.7643 4.92576 21.6203C4.93085 21.591 4.93601 21.5612 4.9412 21.5311C4.97108 21.3575 5.00171 21.1724 5.02218 20.9866L5.0223 20.9855C5.03732 20.8463 5.06504 20.7148 5.09809 20.558C5.11081 20.4976 5.12432 20.4335 5.1382 20.3638C5.18376 20.1349 5.22958 19.8576 5.20473 19.5669C4.92147 16.1262 4.7058 12.8414 5.81463 9.56332C7.99077 3.13228 14.2785 0.5 19.1993 0.5C24.1296 0.5 30.5153 3.13524 32.6852 9.56829L32.6854 9.56892C33.7941 12.8412 33.5786 16.1254 33.2953 19.5714C33.2703 19.8625 33.3162 20.1401 33.3618 20.3692C33.3757 20.439 33.3892 20.503 33.4019 20.5634C33.435 20.7202 33.4627 20.8517 33.4777 20.9909L33.4778 20.992C33.4983 21.1778 33.5289 21.363 33.5588 21.5365C33.564 21.5667 33.5691 21.5964 33.5742 21.6258C33.5992 21.7697 33.6226 21.9049 33.6417 22.0397C33.688 22.3667 33.6985 22.6306 33.6474 22.8538L33.6473 22.8542C33.3406 24.1992 32.9508 25.5213 32.5559 26.8609C32.4276 27.2962 32.2987 27.7335 32.1719 28.1739L32.1719 28.1739L32.1695 28.1827C32.1552 28.236 32.1411 28.2958 32.129 28.3475C32.1255 28.3624 32.1221 28.3766 32.119 28.3898C32.1033 28.4554 32.0897 28.5086 32.0754 28.5534C32.0717 28.5652 32.0681 28.5755 32.0649 28.5844C31.1135 29.1186 30.6759 29.9292 30.3905 30.7296C30.2864 31.0215 30.1971 31.3292 30.1129 31.6194C30.0822 31.7251 30.0522 31.8285 30.0224 31.928C29.9066 32.3143 29.7876 32.6655 29.6263 32.9817L29.6262 32.9818C28.5815 35.0309 28.7806 37.6918 28.8907 39.0833L28.8907 39.0838C29.0047 40.5047 29.7254 41.6577 30.6941 42.5968L30.6943 42.597C32.5665 44.4097 34.4793 45.7986 36.3505 46.91C31.0684 47.9832 25.2979 48.5 19.2473 48.5ZM32.1428 28.5419L32.1407 28.543L32.1428 28.5419Z" fill="white" fillOpacity="0.2" style="mix-blend-mode:lighten"/>
<path d="M19.2473 48.5C13.1957 48.5 7.42423 47.983 2.1413 46.9095C4.01511 45.7972 5.93076 44.4069 7.80568 42.5916L7.8059 42.5914C8.77464 41.6523 9.49533 40.4993 9.60926 39.0784L9.60931 39.0777C9.71939 37.681 9.91849 35.0254 8.87378 32.9764L8.87336 32.9756C8.71227 32.6611 8.59339 32.3108 8.47761 31.9248C8.44759 31.8247 8.41735 31.7205 8.38642 31.614C8.3024 31.3246 8.21327 31.0176 8.10952 30.7263C7.8248 29.927 7.38832 29.1162 6.44005 28.5817C6.4365 28.5721 6.43267 28.5608 6.42855 28.5479C6.41371 28.5014 6.39963 28.4472 6.3829 28.3798C6.38079 28.3713 6.37859 28.3624 6.37633 28.3533C6.36242 28.2969 6.34588 28.2299 6.32806 28.1685C6.2013 27.728 6.07242 27.2908 5.94408 26.8555C5.54918 25.5159 5.15944 24.1938 4.8527 22.8488L4.85262 22.8484C4.80152 22.6251 4.81198 22.3613 4.85828 22.0343C4.87737 21.8995 4.90081 21.7643 4.92576 21.6203C4.93085 21.591 4.93601 21.5612 4.9412 21.5311C4.97108 21.3575 5.00171 21.1724 5.02218 20.9866L5.0223 20.9855C5.03732 20.8463 5.06504 20.7148 5.09809 20.558C5.11081 20.4976 5.12432 20.4335 5.1382 20.3638C5.18376 20.1349 5.22958 19.8576 5.20473 19.5669C4.92147 16.1262 4.7058 12.8414 5.81463 9.56332C7.99077 3.13228 14.2785 0.5 19.1993 0.5C24.1296 0.5 30.5153 3.13524 32.6852 9.56829L32.6854 9.56892C33.7941 12.8412 33.5786 16.1254 33.2953 19.5714C33.2703 19.8625 33.3162 20.1401 33.3618 20.3692C33.3757 20.439 33.3892 20.503 33.4019 20.5634C33.435 20.7202 33.4627 20.8517 33.4777 20.9909L33.4778 20.992C33.4983 21.1778 33.5289 21.363 33.5588 21.5365C33.564 21.5667 33.5691 21.5964 33.5742 21.6258C33.5992 21.7697 33.6226 21.9049 33.6417 22.0397C33.688 22.3667 33.6985 22.6306 33.6474 22.8538L33.6473 22.8542C33.3406 24.1992 32.9508 25.5213 32.5559 26.8609C32.4276 27.2962 32.2987 27.7335 32.1719 28.1739L32.1719 28.1739L32.1695 28.1827C32.1552 28.236 32.1411 28.2958 32.129 28.3475C32.1255 28.3624 32.1221 28.3766 32.119 28.3898C32.1033 28.4554 32.0897 28.5086 32.0754 28.5534C32.0717 28.5652 32.0681 28.5755 32.0649 28.5844C31.1135 29.1186 30.6759 29.9292 30.3905 30.7296C30.2864 31.0215 30.1971 31.3292 30.1129 31.6194C30.0822 31.7251 30.0522 31.8285 30.0224 31.928C29.9066 32.3143 29.7876 32.6655 29.6263 32.9817L29.6262 32.9818C28.5815 35.0309 28.7806 37.6918 28.8907 39.0833L28.8907 39.0838C29.0047 40.5047 29.7254 41.6577 30.6941 42.5968L30.6943 42.597C32.5665 44.4097 34.4793 45.7986 36.3505 46.91C31.0684 47.9832 25.2979 48.5 19.2473 48.5ZM32.1428 28.5419L32.1407 28.543L32.1428 28.5419Z" fill="#5E5E5E" fillOpacity="0.06" style="mix-blend-mode:color-dodge"/>
<path d="M19.2473 48.5C13.1957 48.5 7.42423 47.983 2.1413 46.9095C4.01511 45.7972 5.93076 44.4069 7.80568 42.5916L7.8059 42.5914C8.77464 41.6523 9.49533 40.4993 9.60926 39.0784L9.60931 39.0777C9.71939 37.681 9.91849 35.0254 8.87378 32.9764L8.87336 32.9756C8.71227 32.6611 8.59339 32.3108 8.47761 31.9248C8.44759 31.8247 8.41735 31.7205 8.38642 31.614C8.3024 31.3246 8.21327 31.0176 8.10952 30.7263C7.8248 29.927 7.38832 29.1162 6.44005 28.5817C6.4365 28.5721 6.43267 28.5608 6.42855 28.5479C6.41371 28.5014 6.39963 28.4472 6.3829 28.3798C6.38079 28.3713 6.37859 28.3624 6.37633 28.3533C6.36242 28.2969 6.34588 28.2299 6.32806 28.1685C6.2013 27.728 6.07242 27.2908 5.94408 26.8555C5.54918 25.5159 5.15944 24.1938 4.8527 22.8488L4.85262 22.8484C4.80152 22.6251 4.81198 22.3613 4.85828 22.0343C4.87737 21.8995 4.90081 21.7643 4.92576 21.6203C4.93085 21.591 4.93601 21.5612 4.9412 21.5311C4.97108 21.3575 5.00171 21.1724 5.02218 20.9866L5.0223 20.9855C5.03732 20.8463 5.06504 20.7148 5.09809 20.558C5.11081 20.4976 5.12432 20.4335 5.1382 20.3638C5.18376 20.1349 5.22958 19.8576 5.20473 19.5669C4.92147 16.1262 4.7058 12.8414 5.81463 9.56332C7.99077 3.13228 14.2785 0.5 19.1993 0.5C24.1296 0.5 30.5153 3.13524 32.6852 9.56829L32.6854 9.56892C33.7941 12.8412 33.5786 16.1254 33.2953 19.5714C33.2703 19.8625 33.3162 20.1401 33.3618 20.3692C33.3757 20.439 33.3892 20.503 33.4019 20.5634C33.435 20.7202 33.4627 20.8517 33.4777 20.9909L33.4778 20.992C33.4983 21.1778 33.5289 21.363 33.5588 21.5365C33.564 21.5667 33.5691 21.5964 33.5742 21.6258C33.5992 21.7697 33.6226 21.9049 33.6417 22.0397C33.688 22.3667 33.6985 22.6306 33.6474 22.8538L33.6473 22.8542C33.3406 24.1992 32.9508 25.5213 32.5559 26.8609C32.4276 27.2962 32.2987 27.7335 32.1719 28.1739L32.1719 28.1739L32.1695 28.1827C32.1552 28.236 32.1411 28.2958 32.129 28.3475C32.1255 28.3624 32.1221 28.3766 32.119 28.3898C32.1033 28.4554 32.0897 28.5086 32.0754 28.5534C32.0717 28.5652 32.0681 28.5755 32.0649 28.5844C31.1135 29.1186 30.6759 29.9292 30.3905 30.7296C30.2864 31.0215 30.1971 31.3292 30.1129 31.6194C30.0822 31.7251 30.0522 31.8285 30.0224 31.928C29.9066 32.3143 29.7876 32.6655 29.6263 32.9817L29.6262 32.9818C28.5815 35.0309 28.7806 37.6918 28.8907 39.0833L28.8907 39.0838C29.0047 40.5047 29.7254 41.6577 30.6941 42.5968L30.6943 42.597C32.5665 44.4097 34.4793 45.7986 36.3505 46.91C31.0684 47.9832 25.2979 48.5 19.2473 48.5ZM32.1428 28.5419L32.1407 28.543L32.1428 28.5419Z" fill="url(#paint0_radial_8727_4720)"/>
<path d="M19.2473 48.5C13.1957 48.5 7.42423 47.983 2.1413 46.9095C4.01511 45.7972 5.93076 44.4069 7.80568 42.5916L7.8059 42.5914C8.77464 41.6523 9.49533 40.4993 9.60926 39.0784L9.60931 39.0777C9.71939 37.681 9.91849 35.0254 8.87378 32.9764L8.87336 32.9756C8.71227 32.6611 8.59339 32.3108 8.47761 31.9248C8.44759 31.8247 8.41735 31.7205 8.38642 31.614C8.3024 31.3246 8.21327 31.0176 8.10952 30.7263C7.8248 29.927 7.38832 29.1162 6.44005 28.5817C6.4365 28.5721 6.43267 28.5608 6.42855 28.5479C6.41371 28.5014 6.39963 28.4472 6.3829 28.3798C6.38079 28.3713 6.37859 28.3624 6.37633 28.3533C6.36242 28.2969 6.34588 28.2299 6.32806 28.1685C6.2013 27.728 6.07242 27.2908 5.94408 26.8555C5.54918 25.5159 5.15944 24.1938 4.8527 22.8488L4.85262 22.8484C4.80152 22.6251 4.81198 22.3613 4.85828 22.0343C4.87737 21.8995 4.90081 21.7643 4.92576 21.6203C4.93085 21.591 4.93601 21.5612 4.9412 21.5311C4.97108 21.3575 5.00171 21.1724 5.02218 20.9866L5.0223 20.9855C5.03732 20.8463 5.06504 20.7148 5.09809 20.558C5.11081 20.4976 5.12432 20.4335 5.1382 20.3638C5.18376 20.1349 5.22958 19.8576 5.20473 19.5669C4.92147 16.1262 4.7058 12.8414 5.81463 9.56332C7.99077 3.13228 14.2785 0.5 19.1993 0.5C24.1296 0.5 30.5153 3.13524 32.6852 9.56829L32.6854 9.56892C33.7941 12.8412 33.5786 16.1254 33.2953 19.5714C33.2703 19.8625 33.3162 20.1401 33.3618 20.3692C33.3757 20.439 33.3892 20.503 33.4019 20.5634C33.435 20.7202 33.4627 20.8517 33.4777 20.9909L33.4778 20.992C33.4983 21.1778 33.5289 21.363 33.5588 21.5365C33.564 21.5667 33.5691 21.5964 33.5742 21.6258C33.5992 21.7697 33.6226 21.9049 33.6417 22.0397C33.688 22.3667 33.6985 22.6306 33.6474 22.8538L33.6473 22.8542C33.3406 24.1992 32.9508 25.5213 32.5559 26.8609C32.4276 27.2962 32.2987 27.7335 32.1719 28.1739L32.1719 28.1739L32.1695 28.1827C32.1552 28.236 32.1411 28.2958 32.129 28.3475C32.1255 28.3624 32.1221 28.3766 32.119 28.3898C32.1033 28.4554 32.0897 28.5086 32.0754 28.5534C32.0717 28.5652 32.0681 28.5755 32.0649 28.5844C31.1135 29.1186 30.6759 29.9292 30.3905 30.7296C30.2864 31.0215 30.1971 31.3292 30.1129 31.6194C30.0822 31.7251 30.0522 31.8285 30.0224 31.928C29.9066 32.3143 29.7876 32.6655 29.6263 32.9817L29.6262 32.9818C28.5815 35.0309 28.7806 37.6918 28.8907 39.0833L28.8907 39.0838C29.0047 40.5047 29.7254 41.6577 30.6941 42.5968L30.6943 42.597C32.5665 44.4097 34.4793 45.7986 36.3505 46.91C31.0684 47.9832 25.2979 48.5 19.2473 48.5ZM32.1428 28.5419L32.1407 28.543L32.1428 28.5419Z" fill="url(#paint1_radial_8727_4720)" style="mix-blend-mode:color-dodge"/>
<path d="M19.2473 48.5C13.1957 48.5 7.42423 47.983 2.1413 46.9095C4.01511 45.7972 5.93076 44.4069 7.80568 42.5916L7.8059 42.5914C8.77464 41.6523 9.49533 40.4993 9.60926 39.0784L9.60931 39.0777C9.71939 37.681 9.91849 35.0254 8.87378 32.9764L8.87336 32.9756C8.71227 32.6611 8.59339 32.3108 8.47761 31.9248C8.44759 31.8247 8.41735 31.7205 8.38642 31.614C8.3024 31.3246 8.21327 31.0176 8.10952 30.7263C7.8248 29.927 7.38832 29.1162 6.44005 28.5817C6.4365 28.5721 6.43267 28.5608 6.42855 28.5479C6.41371 28.5014 6.39963 28.4472 6.3829 28.3798C6.38079 28.3713 6.37859 28.3624 6.37633 28.3533C6.36242 28.2969 6.34588 28.2299 6.32806 28.1685C6.2013 27.728 6.07242 27.2908 5.94408 26.8555C5.54918 25.5159 5.15944 24.1938 4.8527 22.8488L4.85262 22.8484C4.80152 22.6251 4.81198 22.3613 4.85828 22.0343C4.87737 21.8995 4.90081 21.7643 4.92576 21.6203C4.93085 21.591 4.93601 21.5612 4.9412 21.5311C4.97108 21.3575 5.00171 21.1724 5.02218 20.9866L5.0223 20.9855C5.03732 20.8463 5.06504 20.7148 5.09809 20.558C5.11081 20.4976 5.12432 20.4335 5.1382 20.3638C5.18376 20.1349 5.22958 19.8576 5.20473 19.5669C4.92147 16.1262 4.7058 12.8414 5.81463 9.56332C7.99077 3.13228 14.2785 0.5 19.1993 0.5C24.1296 0.5 30.5153 3.13524 32.6852 9.56829L32.6854 9.56892C33.7941 12.8412 33.5786 16.1254 33.2953 19.5714C33.2703 19.8625 33.3162 20.1401 33.3618 20.3692C33.3757 20.439 33.3892 20.503 33.4019 20.5634C33.435 20.7202 33.4627 20.8517 33.4777 20.9909L33.4778 20.992C33.4983 21.1778 33.5289 21.363 33.5588 21.5365C33.564 21.5667 33.5691 21.5964 33.5742 21.6258C33.5992 21.7697 33.6226 21.9049 33.6417 22.0397C33.688 22.3667 33.6985 22.6306 33.6474 22.8538L33.6473 22.8542C33.3406 24.1992 32.9508 25.5213 32.5559 26.8609C32.4276 27.2962 32.2987 27.7335 32.1719 28.1739L32.1719 28.1739L32.1695 28.1827C32.1552 28.236 32.1411 28.2958 32.129 28.3475C32.1255 28.3624 32.1221 28.3766 32.119 28.3898C32.1033 28.4554 32.0897 28.5086 32.0754 28.5534C32.0717 28.5652 32.0681 28.5755 32.0649 28.5844C31.1135 29.1186 30.6759 29.9292 30.3905 30.7296C30.2864 31.0215 30.1971 31.3292 30.1129 31.6194C30.0822 31.7251 30.0522 31.8285 30.0224 31.928C29.9066 32.3143 29.7876 32.6655 29.6263 32.9817L29.6262 32.9818C28.5815 35.0309 28.7806 37.6918 28.8907 39.0833L28.8907 39.0838C29.0047 40.5047 29.7254 41.6577 30.6941 42.5968L30.6943 42.597C32.5665 44.4097 34.4793 45.7986 36.3505 46.91C31.0684 47.9832 25.2979 48.5 19.2473 48.5ZM32.1428 28.5419L32.1407 28.543L32.1428 28.5419Z" stroke="#A6A6A6"/>
<defs>
<radialGradient id="paint0_radial_8727_4720" cx="0" cy="0" r="1" gradientUnits="userSpaceOnUse" gradientTransform="translate(19.25 49) rotate(-90) scale(80.5 18.5)">
<stop stopColor="white" stopOpacity="0.07"/>
<stop offset="0.603261" stopColor="white" stopOpacity="0"/>
</radialGradient>
<radialGradient id="paint1_radial_8727_4720" cx="0" cy="0" r="1" gradientUnits="userSpaceOnUse" gradientTransform="translate(19.25 49) rotate(-90) scale(66.9375 12.625)">
<stop stopColor="#5E5E5E" stopOpacity="0.14"/>
<stop offset="0.738467" stopColor="#5E5E5E" stopOpacity="0"/>
</radialGradient>
</defs>
</svg>
